<?xml version="1.0" encoding="UTF-8" standalone="no"?>
<!-- Created with Inkscape (http://www.inkscape.org/) -->

<svg
   version="1.1"
   id="svg3656"
   width="323.36841"
   height="323.36841"
   viewBox="0 0 323.36841 323.36841"
   xmlns="http://www.w3.org/2000/svg"
   xmlns:svg="http://www.w3.org/2000/svg">
  <defs
     id="defs3660" />
  <g
     id="g3662">
    <path
       style="fill:#a6e3a1;stroke-width:0.631579;fill-opacity:1"
       d="m 157.45369,322.18889 c -2.43265,-1.13523 -4.43507,-3.06659 -5.83536,-5.62828 -0.9669,-1.76886 -1.13862,-4.24274 -1.31598,-18.95821 -0.26631,-22.09541 0.43913,-25.29299 6.232,-28.2483 4.65537,-2.37499 10.9124,-0.97675 13.80452,3.08487 2.29225,3.21916 2.6922,7.2827 2.47669,25.16343 -0.1967,16.32101 -0.25579,17.01428 -1.65868,19.46106 -2.80581,4.89361 -9.13061,7.2593 -13.70319,5.12543 z M 49.921225,277.50938 c -6.20532,-3.07158 -7.8313,-10.28242 -3.67196,-16.28434 0.92775,-1.33874 7.16126,-7.84448 13.85226,-14.45721 10.2643,-10.14421 12.59007,-12.13747 14.88258,-12.75477 3.76404,-1.01356 7.28517,-0.27505 9.98317,2.09383 3.64215,3.19785 4.91314,7.9219 3.28785,12.2204 -0.99318,2.62674 -26.26147,27.8787 -29.32774,29.3088 -3.30093,1.53953 -5.70838,1.50566 -9.00616,-0.12671 z m 213.596625,0.0608 c -1.53218,-0.75844 -7.80736,-6.55184 -15.56277,-14.36792 -10.55897,-10.64159 -13.142,-13.58888 -13.77747,-15.72034 -1.51113,-5.0686 0.7962,-10.22621 5.67816,-12.6925 6.53995,-3.30388 8.73087,-2.05214 24.73965,14.13449 10.57546,10.69296 13.1841,13.67652 13.81856,15.80458 1.51113,5.0686 -0.7962,10.22621 -5.67816,12.6925 -3.47459,1.75531 -5.89417,1.79447 -9.21797,0.14919 z M 157.1379,242.42434 c -35.2715,-2.45608 -64.653035,-26.39353 -73.908245,-60.21383 -3.62016,-13.22879 -3.62016,-28.45541 0,-41.6842 7.19799,-26.30283 27.254655,-47.596608 52.935335,-56.200424 14.33753,-4.803518 31.62692,-5.284686 46.23607,-1.286773 26.30283,7.197992 47.59661,27.254657 56.20042,52.935337 4.80352,14.33753 5.28469,31.62691 1.28678,46.23606 -7.20068,26.31265 -27.25337,47.59618 -52.95727,56.20777 -8.50097,2.84809 -21.43906,4.58778 -29.79309,4.00606 z m 21.02881,-24.4535 c 20.38846,-6.11544 34.34942,-20.34456 40.35367,-41.12875 1.26199,-4.36852 1.45963,-6.46362 1.45963,-15.47369 0,-9.01005 -0.19764,-11.10515 -1.45963,-15.47367 -5.99968,-20.76835 -19.79402,-34.84274 -40.35367,-41.17289 -5.14035,-1.58268 -6.38038,-1.71038 -16.60776,-1.71038 -10.22737,0 -11.4674,0.1277 -16.60775,1.71038 -20.55965,6.33015 -34.35399,20.40454 -40.35367,41.17289 -1.26199,4.36852 -1.45963,6.46362 -1.45963,15.47367 0,9.01007 0.19764,11.10517 1.45963,15.47369 6.47931,22.42865 22.14089,37.14837 45.03278,42.32457 2.8485,0.64409 6.81784,0.84723 13.50759,0.69128 7.99678,-0.18643 10.33971,-0.48061 15.02881,-1.8871 z M 8.4932545,172.03802 c -3.48681,-0.81925 -5.77952,-2.67756 -7.3784,-5.98041 -2.56357,-5.29563 -0.59288002,-11.22427 4.74905,-14.28712 2.44678,-1.40289 3.14005,-1.46198 19.4610605,-1.65868 17.88073,-0.21551 21.94427,0.18444 25.16343,2.47669 4.06162,2.89212 5.45986,9.14914 3.08487,13.80451 -1.53171,3.0024 -3.99685,4.82872 -7.65637,5.67232 -3.41097,0.7863 -34.056031,0.76394 -37.4236405,-0.0273 z m 268.4210355,0.0218 c -5.10233,-1.24454 -8.6185,-5.60642 -8.6185,-10.69141 0,-3.19137 1.90476,-7.05033 4.33373,-8.7799 3.21916,-2.29225 7.2827,-2.6922 25.16343,-2.47669 16.32101,0.1967 17.01428,0.25579 19.46106,1.65868 3.85439,2.20995 5.67336,5.2872 5.67336,9.59791 0,4.31073 -1.81897,7.38798 -5.67336,9.59793 -2.46743,1.41473 -3.0232,1.4579 -20.22138,1.57097 -9.72631,0.0639 -18.77957,-0.15091 -20.11834,-0.47746 z M 74.401065,88.653585 c -1.61056,-0.484882 -5.74911,-4.206581 -15.24804,-13.712185 -7.17063,-7.175666 -13.518,-14.002036 -14.10526,-15.169711 -3.24401,-6.450189 0.92548,-14.503762 8.1127,-15.670086 4.71195,-0.764644 6.74981,0.70641 21.37842,15.432254 14.63776,14.735057 15.05905,15.352463 14.17849,20.778762 -1.01806,6.27353 -7.88824,10.276231 -14.31631,8.340966 z m 167.118515,0.09137 c -5.46853,-1.733292 -8.74962,-8.798841 -6.65707,-14.33542 0.36959,-0.97788 6.68501,-7.817906 14.03428,-15.200066 14.32087,-14.384969 16.38608,-15.866447 21.06066,-15.107866 7.196,1.16775 11.37484,9.257718 8.09431,15.670086 -1.22959,2.40345 -23.30346,24.957138 -26.79298,27.375378 -2.53722,1.758297 -6.94929,2.482175 -9.7392,1.597888 z M 156.39926,53.351496 c -5.65809,-2.988859 -6.36173,-6.245351 -6.09691,-28.217074 0.1967,-16.3210058 0.25579,-17.0142788 1.65868,-19.4610598 C 154.17098,1.818965 157.24823,0 161.55895,0 c 4.31073,0 7.38798,1.818965 9.59793,5.6733622 1.40289,2.446781 1.46198,3.140054 1.65868,19.4610598 0.21551,17.880729 -0.18444,21.944271 -2.47669,25.16343 -2.888,4.055835 -9.35892,5.473369 -13.93961,3.053644 z"
       id="path4187" />
  </g>
</svg>
